<svg width="29" height="29" fill="none" xmlns="http://www.w3.org/2000/svg"><g filter="url(#filter0_d_1922_6)"><path d="M19.556 17H9.444C8.647 17 8 16.418 8 15.7V6.6c0-.718.647-1.3 1.444-1.3h1.445V4h1.444v1.3h4.334V4h1.444v1.3h1.445c.797 0 1.444.582 1.444 1.3v9.1c0 .718-.647 1.3-1.444 1.3zM9.444 9.2v6.5h10.112V9.2H9.444zm0-2.6v1.3h10.112V6.6H9.444zm8.667 5.2H10.89v-1.3h7.222v1.3z" fill="#fff"/></g><defs><filter id="filter0_d_1922_6" x="0" y="0" width="29" height="29" filterUnits="userSpaceOnUse" color-interpolation-filters="sRGB"><feFlood flood-opacity="0" result="BackgroundImageFix"/><feColorMatrix in="SourceAlpha" values="0 0 0 0 0 0 0 0 0 0 0 0 0 0 0 0 0 0 127 0" result="hardAlpha"/><feOffset dy="4"/><feGaussianBlur stdDeviation="4"/><feColorMatrix values="0 0 0 0 0 0 0 0 0 0 0 0 0 0 0 0 0 0 0.41 0"/><feBlend in2="BackgroundImageFix" result="effect1_dropShadow_1922_6"/><feBlend in="SourceGraphic" in2="effect1_dropShadow_1922_6" result="shape"/></filter></defs></svg>