<svg xmlns="http://www.w3.org/2000/svg" width="46" height="46" preserveAspectRatio="none"><path fill="currentColor" d="M18.5-.5h6c14.931 4.86 20.098 14.86 15.5 30l-3 3a10.76 10.76 0 01-2.5-3c1.333-1.12 1.833-2.453 1.5-4-1.8-1.817-3.966-2.984-6.5-3.5 1.365-1.682 2.865-1.849 4.5-.5.226-8.529-3.94-13.196-12.5-14-12.75 3.834-15.417 11.334-8 22.5 2.409 1.707 5.076 2.54 8 2.5a8.434 8.434 0 01.5-4 39.788 39.788 0 008 7 8.434 8.434 0 00.5-4c4.125.223 4.791 1.723 2 4.5 4.404.701 8.07 2.701 11 6a254.106 254.106 0 00-27-2C2.283 34.055-1.884 23.889 4 9.5c3.64-5.152 8.474-8.486 14.5-10z"/></svg>