<svg width="32" height="32" fill="none" xmlns="http://www.w3.org/2000/svg"><g filter="url(#filter0_d_1801_6)"><path fill-rule="evenodd" clip-rule="evenodd" d="M16 3c-4.968 0-9 4.032-9 9s4.032 9 9 9 9-4.032 9-9-4.032-9-9-9zm-.9 16.137A7.19 7.19 0 018.8 12c0-.558.072-1.089.189-1.611L13.3 14.7v.9c0 .99.81 1.8 1.8 1.8v1.737zm4.5-3.537c.81 0 1.476.522 1.71 1.251A7.161 7.161 0 0023.2 12c0-3.015-1.863-5.598-4.5-6.669V5.7c0 .99-.81 1.8-1.8 1.8h-1.8v1.8c0 .495-.405.9-.9.9h-1.8V12h5.4c.495 0 .9.405.9.9v2.7h.9z" fill="#fff"/></g><defs><filter id="filter0_d_1801_6" x="0" y="0" width="32" height="32" filterUnits="userSpaceOnUse" color-interpolation-filters="sRGB"><feFlood flood-opacity="0" result="BackgroundImageFix"/><feColorMatrix in="SourceAlpha" values="0 0 0 0 0 0 0 0 0 0 0 0 0 0 0 0 0 0 127 0" result="hardAlpha"/><feOffset dy="4"/><feGaussianBlur stdDeviation="3.5"/><feColorMatrix values="0 0 0 0 0 0 0 0 0 0 0 0 0 0 0 0 0 0 0.29 0"/><feBlend in2="BackgroundImageFix" result="effect1_dropShadow_1801_6"/><feBlend in="SourceGraphic" in2="effect1_dropShadow_1801_6" result="shape"/></filter></defs></svg>