<svg width="58" height="68" fill="none" xmlns="http://www.w3.org/2000/svg"><g filter="url(#filter0_d_1801_13)"><path fill-rule="evenodd" clip-rule="evenodd" d="M17.047 7.607c3.111-1.095 7.056-.807 10.053 1.71l.009.007L44.037 23.77c3.95 3.371 3.95 9.052 0 12.424L27.117 50.63c-2.991 2.554-6.944 2.867-10.07 1.768C13.922 51.299 11 48.512 11 44.39V15.573c0-4.11 2.942-6.873 6.047-7.965zm1.99 5.66C17.586 13.777 17 14.72 17 15.572v28.82c0 .896.606 1.843 2.037 2.347 1.43.502 3.063.287 4.186-.672L40.142 31.63c1.144-.977 1.144-2.32 0-3.296L23.233 13.905c-1.118-.934-2.755-1.145-4.196-.638z" fill="#fff"/></g><defs><filter id="filter0_d_1801_13" x="0" y=".001" width="58" height="67.997" filterUnits="userSpaceOnUse" color-interpolation-filters="sRGB"><feFlood flood-opacity="0" result="BackgroundImageFix"/><feColorMatrix in="SourceAlpha" values="0 0 0 0 0 0 0 0 0 0 0 0 0 0 0 0 0 0 127 0" result="hardAlpha"/><feOffset dy="4"/><feGaussianBlur stdDeviation="5.5"/><feColorMatrix values="0 0 0 0 0.368329 0 0 0 0 0.327778 0 0 0 0 0.666667 0 0 0 1 0"/><feBlend in2="BackgroundImageFix" result="effect1_dropShadow_1801_13"/><feBlend in="SourceGraphic" in2="effect1_dropShadow_1801_13" result="shape"/></filter></defs></svg>