<svg width="26" height="31" fill="none" xmlns="http://www.w3.org/2000/svg"><g filter="url(#filter0_d_1801_3)"><path d="M15.571 20H10.43v-1.7h5.142V20zm0-2.55H10.43l-.192-1.7a7.144 7.144 0 00-.506-1.633c-.304-.425-.62-.788-.926-1.142A5.645 5.645 0 017 8.95C7 5.664 9.686 3 13 3s6 2.664 6 5.95a5.668 5.668 0 01-1.794 4.004l-.015.017c-.305.355-.62.722-.918 1.143a7.272 7.272 0 00-.508 1.636l-.194 1.7zM13 4.7c-2.366.003-4.283 1.904-4.286 4.25 0 1.312.552 1.95 1.387 2.914.317.367.677.782 1.029 1.267.426.822.718 1.706.863 2.619h2.015c.149-.91.44-1.792.862-2.614.343-.485.702-.902 1.019-1.27l.012-.015c.834-.969 1.385-1.609 1.385-2.901-.003-2.346-1.92-4.247-4.286-4.25z" fill="#fff"/></g><defs><filter id="filter0_d_1801_3" x="0" y="0" width="26" height="31" filterUnits="userSpaceOnUse" color-interpolation-filters="sRGB"><feFlood flood-opacity="0" result="BackgroundImageFix"/><feColorMatrix in="SourceAlpha" values="0 0 0 0 0 0 0 0 0 0 0 0 0 0 0 0 0 0 127 0" result="hardAlpha"/><feOffset dy="4"/><feGaussianBlur stdDeviation="3.5"/><feColorMatrix values="0 0 0 0 0 0 0 0 0 0 0 0 0 0 0 0 0 0 0.29 0"/><feBlend in2="BackgroundImageFix" result="effect1_dropShadow_1801_3"/><feBlend in="SourceGraphic" in2="effect1_dropShadow_1801_3" result="shape"/></filter></defs></svg>