<svg width="24" height="24" fill="none" xmlns="http://www.w3.org/2000/svg"><path d="M10.498 23.997H3.5a2.503 2.503 0 01-2.5-2.5V9.858A2.372 2.372 0 01.29 6.79c1.079-1.93 2.18-3.831 3.264-5.654A2.371 2.371 0 015.598 0a2.477 2.477 0 011.416.462l.029.018c.494.288 5.269 3.13 9.107 5.414l3.406 2.025.156.093a484.84 484.84 0 013.294 1.953c.98.694 1.28 2.013.699 3.063a255.12 255.12 0 01-3.265 5.654 2.379 2.379 0 01-2.015 1.141c-.162 0-.323-.018-.48-.054-.14.083-.907.576-1.88 1.2-1.731 1.11-4.097 2.628-4.37 2.768-.37.19-.782.28-1.197.26zM2.999 13.235v8.262a.5.5 0 00.5.5h4.587A582.928 582.928 0 013 13.235zm1.63-1.2c.48.824 5.658 9.757 5.701 9.817a.36.36 0 00.455.099c.162-.092 5.032-3.221 5.08-3.252-.377-.222-3.103-1.847-5.99-3.566l-5.27-3.134.008.013.012.02v.008l.004-.005zm.568-9.755C4.228 3.84 2.06 7.713 2.03 7.784a.374.374 0 00.149.463c.16.095 16.021 9.546 16.173 9.57h.057c.13 0 .252-.067.32-.179.976-1.64 3.226-5.588 3.232-5.6a.38.38 0 00-.15-.464c-.153-.091-15.985-9.5-16.087-9.545a.377.377 0 00-.46.14l-.008.015-.01.014-.014.024v.006l-.018.03-.018.022h.001zm1.624 6.587a1.999 1.999 0 112-2.004 2.002 2.002 0 01-2 2v.004z" fill="#1B1D21"/></svg>