<svg width="26" height="21" fill="none" xmlns="http://www.w3.org/2000/svg"><path d="M22.937 3.311A5.32 5.32 0 0025.283.377a10.715 10.715 0 01-3.387 1.287A5.367 5.367 0 0015.49.629a5.304 5.304 0 00-2.688 5.873A15.173 15.173 0 011.81.961a5.296 5.296 0 001.65 7.081 5.338 5.338 0 01-2.415-.665v.067c0 2.525 1.79 4.7 4.28 5.2a5.374 5.374 0 01-2.409.092 5.341 5.341 0 004.983 3.683 10.74 10.74 0 01-6.625 2.27c-.426.001-.851-.023-1.274-.072A15.16 15.16 0 008.177 21a15.117 15.117 0 0010.763-4.39 14.945 14.945 0 004.414-10.702c0-.23-.006-.459-.016-.686A10.805 10.805 0 0026 2.476a10.71 10.71 0 01-3.063.835z" fill="#C6C6C6"/></svg>