<svg width="29" height="25" fill="none" xmlns="http://www.w3.org/2000/svg"><g filter="url(#filter0_d_1830_7)"><path d="M8.5 14H7c0-2.43 2.015-4.4 4.5-4.4S16 11.57 16 14h-1.5c0-1.62-1.343-2.933-3-2.933s-3 1.313-3 2.933zm11.25-2.2h-1.5V9.6H16V8.133h2.25v-2.2h1.5v2.2H22V9.6h-2.25v2.2zM11.5 8.867c-1.657 0-3-1.314-3-2.934S9.843 3 11.5 3s3 1.313 3 2.933c-.002 1.62-1.344 2.932-3 2.934zm0-4.4c-.82 0-1.487.644-1.498 1.445-.012.801.636 1.464 1.455 1.487.82.024 1.506-.6 1.543-1.4v.294-.36c0-.81-.672-1.466-1.5-1.466z" fill="#fff"/></g><defs><filter id="filter0_d_1830_7" x="0" y="0" width="29" height="25" filterUnits="userSpaceOnUse" color-interpolation-filters="sRGB"><feFlood flood-opacity="0" result="BackgroundImageFix"/><feColorMatrix in="SourceAlpha" values="0 0 0 0 0 0 0 0 0 0 0 0 0 0 0 0 0 0 127 0" result="hardAlpha"/><feOffset dy="4"/><feGaussianBlur stdDeviation="3.5"/><feColorMatrix values="0 0 0 0 0 0 0 0 0 0 0 0 0 0 0 0 0 0 0.2 0"/><feBlend in2="BackgroundImageFix" result="effect1_dropShadow_1830_7"/><feBlend in="SourceGraphic" in2="effect1_dropShadow_1830_7" result="shape"/></filter></defs></svg>