<svg width="29" height="24" fill="none" xmlns="http://www.w3.org/2000/svg"><path d="M3.053 24H0c0-4.86 4.1-8.8 9.158-8.8s9.158 3.94 9.158 8.8h-3.052c0-3.24-2.734-5.866-6.106-5.866S3.053 20.76 3.053 24zm21.924-5.334l-2.158-2.073c2.004-1.926 3.13-4.537 3.13-7.26S24.823 4 22.819 2.073L24.977 0c5.364 5.154 5.364 13.51 0 18.665v.001zM20.66 14.52l-2.158-2.077a4.279 4.279 0 000-6.218l2.158-2.078c2.98 2.864 2.98 7.506 0 10.37v.003zm-11.5-.786c-3.373 0-6.106-2.627-6.106-5.866C3.053 4.627 5.786 2 9.158 2s6.106 2.627 6.106 5.867a5.752 5.752 0 01-1.789 4.148 6.234 6.234 0 01-4.317 1.718zm0-8.8c-1.669.002-3.026 1.29-3.05 2.892-.024 1.602 1.295 2.926 2.962 2.973 1.667.048 3.065-1.199 3.14-2.8v.587-.718c0-1.62-1.367-2.934-3.053-2.934z" fill="#1B1D21"/></svg>