<svg width="38" height="40" fill="none" xmlns="http://www.w3.org/2000/svg"><path d="M20.384 34.71c-.817.6-1.974.6-2.791 0L3.637 24.47c-.814-.6-1.955-.6-2.769 0-1.157.857-1.157 2.506 0 3.363L16.208 39.1c1.635 1.2 3.927 1.2 5.583 0l15.341-11.266c1.157-.857 1.157-2.506 0-3.363l-.023-.021c-.813-.6-1.955-.6-2.768 0L20.384 34.71z" fill="#6C5DD2"/><path d="M22.218 28.04l14.937-11.78c1.127-.896 1.127-2.643 0-3.54L22.218.94a4.397 4.397 0 00-5.436 0L1.845 12.744c-1.127.896-1.127 2.643 0 3.539l14.937 11.78a4.366 4.366 0 005.436-.022z" fill="#6C5DD3" fill-opacity=".17"/></svg>