<svg width="61" height="65" fill="none" xmlns="http://www.w3.org/2000/svg"><path d="M32.722 56.072a3.686 3.686 0 01-4.48 0L5.837 38.795a3.632 3.632 0 00-4.445 0 3.586 3.586 0 000 5.675L26.02 63.482c2.623 2.024 6.302 2.024 8.962 0L59.607 44.47a3.585 3.585 0 000-5.675l-.037-.036a3.632 3.632 0 00-4.444 0L32.722 56.072z" fill="#E0E0E0"/><path d="M34.98 45.444l24.627-19.092c1.858-1.452 1.858-4.284 0-5.735L34.98 1.524c-2.623-2.032-6.302-2.032-8.962 0L1.393 20.653c-1.857 1.452-1.857 4.283 0 5.735L26.02 45.48a7.296 7.296 0 008.962-.036z" fill="#B7B7B7" fill-opacity=".17"/></svg>