<svg width="30" height="30" fill="none" xmlns="http://www.w3.org/2000/svg"><g filter="url(#filter0_d_1840_43)"><path d="M21.3 10.3h-2.219l1.778-1.778a.697.697 0 000-.987.706.706 0 00-.994 0L17.1 10.3h-1.4V8.9l2.765-2.765a.706.706 0 000-.994.697.697 0 00-.987 0L15.7 6.919V4.7c0-.385-.315-.7-.7-.7-.385 0-.7.315-.7.7v2.219l-1.778-1.778a.697.697 0 00-.987 0 .706.706 0 000 .994L14.3 8.9v1.4h-1.4l-2.765-2.765a.706.706 0 00-.994 0 .697.697 0 000 .987l1.778 1.778H8.7c-.385 0-.7.315-.7.7 0 .385.315.7.7.7h2.219l-1.778 1.778a.697.697 0 000 .987.706.706 0 00.994 0L12.9 11.7h1.4v1.4l-2.765 2.765a.706.706 0 000 .994.697.697 0 00.987 0l1.778-1.778V17.3c0 .385.315.7.7.7.385 0 .7-.315.7-.7v-2.219l1.778 1.778a.697.697 0 00.987 0 .706.706 0 000-.994L15.7 13.1v-1.4h1.4l2.765 2.765a.706.706 0 00.994 0 .697.697 0 000-.987L19.081 11.7H21.3c.385 0 .7-.315.7-.7 0-.385-.315-.7-.7-.7z" fill="#fff"/></g><defs><filter id="filter0_d_1840_43" x="0" y="0" width="30" height="30" filterUnits="userSpaceOnUse" color-interpolation-filters="sRGB"><feFlood flood-opacity="0" result="BackgroundImageFix"/><feColorMatrix in="SourceAlpha" values="0 0 0 0 0 0 0 0 0 0 0 0 0 0 0 0 0 0 127 0" result="hardAlpha"/><feOffset dy="4"/><feGaussianBlur stdDeviation="4"/><feColorMatrix values="0 0 0 0 0 0 0 0 0 0 0 0 0 0 0 0 0 0 0.25 0"/><feBlend in2="BackgroundImageFix" result="effect1_dropShadow_1840_43"/><feBlend in="SourceGraphic" in2="effect1_dropShadow_1840_43" result="shape"/></filter></defs></svg>