<svg width="18" height="17" fill="none" xmlns="http://www.w3.org/2000/svg"><path fill-rule="evenodd" clip-rule="evenodd" d="M6.611 12.278V4.722c0-1.039.84-1.889 1.889-1.889H17V1.89C17 .85 16.15 0 15.111 0H1.89C.84 0 0 .85 0 1.889V15.11C0 16.15.84 17 1.889 17H15.11c1.04 0 1.89-.85 1.89-1.889v-.944H8.5a1.888 1.888 0 01-1.889-1.89zm2.833-7.556a.947.947 0 00-.944.945v5.667c0 .519.425.944.944.944h8.5V4.722h-8.5zM10.861 8.5c0 .784.633 1.417 1.417 1.417s1.416-.633 1.416-1.417-.632-1.417-1.416-1.417c-.784 0-1.417.633-1.417 1.417z" fill="#DCDCDC"/></svg>