<svg width="40" height="40" fill="none" xmlns="http://www.w3.org/2000/svg"><g filter="url(#filter0_d_1840_41)"><path fill-rule="evenodd" clip-rule="evenodd" d="M24.8 10h-7.2c-.66 0-1.2.54-1.2 1.2v7.2c0 .66.54 1.2 1.2 1.2h7.2c.66 0 1.2-.54 1.2-1.2v-7.2c0-.66-.54-1.2-1.2-1.2zm-10.2 2.4c-.33 0-.6.27-.6.6v7.8c0 .66.54 1.2 1.2 1.2H23c.33 0 .6-.27.6-.6 0-.33-.27-.6-.6-.6h-7.2c-.33 0-.6-.27-.6-.6V13c0-.33-.27-.6-.6-.6zm7.2 3h1.8c.33 0 .6-.27.6-.6 0-.33-.27-.6-.6-.6h-1.8v-1.8c0-.33-.27-.6-.6-.6-.33 0-.6.27-.6.6v1.8h-1.8c-.33 0-.6.27-.6.6 0 .33.27.6.6.6h1.8v1.8c0 .33.27.6.6.6.33 0 .6-.27.6-.6v-1.8z" fill="#fff"/></g><defs><filter id="filter0_d_1840_41" x="0" y="0" width="40" height="39.999" filterUnits="userSpaceOnUse" color-interpolation-filters="sRGB"><feFlood flood-opacity="0" result="BackgroundImageFix"/><feColorMatrix in="SourceAlpha" values="0 0 0 0 0 0 0 0 0 0 0 0 0 0 0 0 0 0 127 0" result="hardAlpha"/><feOffset dy="4"/><feGaussianBlur stdDeviation="7"/><feColorMatrix values="0 0 0 0 0 0 0 0 0 0 0 0 0 0 0 0 0 0 0.3 0"/><feBlend in2="BackgroundImageFix" result="effect1_dropShadow_1840_41"/><feBlend in="SourceGraphic" in2="effect1_dropShadow_1840_41" result="shape"/></filter></defs></svg>