<svg width="17" height="17" fill="none" xmlns="http://www.w3.org/2000/svg"><path d="M8.503 17C4.173 16.944.677 13.5.62 9.237.677 4.973 4.173 1.53 8.503 1.474c4.33.056 7.825 3.5 7.882 7.763-.057 4.264-3.553 7.707-7.882 7.763zm0-13.8c-3.368.043-6.087 2.72-6.131 6.037.044 3.316 2.763 5.994 6.13 6.038 3.368-.044 6.087-2.722 6.131-6.038-.044-3.316-2.763-5.994-6.13-6.038zm4.379 6.9H7.627V4.924h1.751v3.45h3.504V10.1zm2.883-6.29L13.13 1.222 14.364 0 17 2.588l-1.235 1.221zm-14.526 0L0 2.588 2.62 0l1.239 1.222L1.24 3.81z" fill="#1B1D21"/></svg>