<svg width="33" height="33" fill="none" xmlns="http://www.w3.org/2000/svg"><g filter="url(#filter0_d_1840_54)"><path d="M18.4 21.999H8.9a1.837 1.837 0 01-1.899-1.9V10.6a1.837 1.837 0 011.9-1.9h3.8V4.9a1.837 1.837 0 011.9-1.899h9.498a1.837 1.837 0 011.9 1.9V14.4a1.838 1.838 0 01-1.9 1.9h-3.8v3.8a1.838 1.838 0 01-1.9 1.899zM8.9 10.6v9.5h9.5v-3.8h-3.8a1.838 1.838 0 01-1.9-1.9v-3.8H8.9zm5.7-5.7v9.5h9.5V4.9h-9.5z" fill="#fff"/></g><defs><filter id="filter0_d_1840_54" x="0" y="0" width="33" height="33" filterUnits="userSpaceOnUse" color-interpolation-filters="sRGB"><feFlood flood-opacity="0" result="BackgroundImageFix"/><feColorMatrix in="SourceAlpha" values="0 0 0 0 0 0 0 0 0 0 0 0 0 0 0 0 0 0 127 0" result="hardAlpha"/><feOffset dy="4"/><feGaussianBlur stdDeviation="3.5"/><feColorMatrix values="0 0 0 0 0 0 0 0 0 0 0 0 0 0 0 0 0 0 0.2 0"/><feBlend in2="BackgroundImageFix" result="effect1_dropShadow_1840_54"/><feBlend in="SourceGraphic" in2="effect1_dropShadow_1840_54" result="shape"/></filter></defs></svg>