<svg width="40" height="37" fill="none" xmlns="http://www.w3.org/2000/svg"><g filter="url(#filter0_d_1840_49)"><path d="M25.6 20H14.4c-.773 0-1.4-.616-1.4-1.375v-8.25C13 9.615 13.627 9 14.4 9h11.2c.773 0 1.4.616 1.4 1.375v8.25c0 .76-.627 1.375-1.4 1.375zm-11.2-9.625v8.25h11.2v-8.25H14.4zm8.05 6.875c-.966 0-1.75-.77-1.75-1.719 0-.949.784-1.719 1.75-1.719s1.75.77 1.75 1.72c0 .455-.184.892-.513 1.215a1.766 1.766 0 01-1.237.503zm-2.8 0c-.966 0-1.75-.77-1.75-1.719 0-.949.784-1.719 1.75-1.719.38 0 .75.125 1.05.353-.44.32-.7.827-.7 1.366 0 .538.26 1.045.7 1.366-.3.229-.67.353-1.05.353z" fill="#fff"/></g><defs><filter id="filter0_d_1840_49" x="0" y="0" width="40" height="37" filterUnits="userSpaceOnUse" color-interpolation-filters="sRGB"><feFlood flood-opacity="0" result="BackgroundImageFix"/><feColorMatrix in="SourceAlpha" values="0 0 0 0 0 0 0 0 0 0 0 0 0 0 0 0 0 0 127 0" result="hardAlpha"/><feOffset dy="4"/><feGaussianBlur stdDeviation="6.5"/><feColorMatrix values="0 0 0 0 0 0 0 0 0 0 0 0 0 0 0 0 0 0 0.44 0"/><feBlend in2="BackgroundImageFix" result="effect1_dropShadow_1840_49"/><feBlend in="SourceGraphic" in2="effect1_dropShadow_1840_49" result="shape"/></filter></defs></svg>