<svg width="18" height="19" fill="none" xmlns="http://www.w3.org/2000/svg"><path d="M9.656 16.685a1.209 1.209 0 01-1.322 0l-6.611-4.479a1.191 1.191 0 00-1.312 0c-.548.375-.548 1.097 0 1.471l7.267 4.93c.774.524 1.86.524 2.644 0l7.267-4.93c.548-.374.548-1.096 0-1.47l-.01-.01a1.19 1.19 0 00-1.312 0l-6.611 4.488z" fill="#6C5DD2"/><path d="M10.322 13.536L17.59 7.85a1.093 1.093 0 000-1.708L10.322.454a2.152 2.152 0 00-2.644 0L.41 6.152a1.093 1.093 0 000 1.708l7.267 5.687c.774.606 1.87.606 2.644-.01z" fill="#6C5DD3" fill-opacity=".17"/></svg>