<svg width="19" height="17" fill="none" xmlns="http://www.w3.org/2000/svg"><path d="M17.072 17l-3.189-3.104a10.53 10.53 0 01-4.383.9c-1.558.02-3.1-.308-4.509-.957a9.551 9.551 0 01-2.889-2.11A9.676 9.676 0 01.095 8.613L0 8.323l.1-.292A10.007 10.007 0 013.44 3.73L.95 1.306 2.292 0l16.12 15.692L17.074 17h-.002zM4.784 5.04a7.98 7.98 0 00-2.773 3.283c1.287 2.89 4.255 4.722 7.489 4.624a9.062 9.062 0 002.933-.463l-1.71-1.664a2.87 2.87 0 01-1.223.277c-1.57-.01-2.84-1.246-2.85-2.774 0-.414.098-.822.285-1.193l-2.15-2.09zm12.176 6.62l-1.322-1.286a7.926 7.926 0 001.352-2.052c-1.286-2.89-4.256-4.724-7.49-4.623-.235 0-.47.008-.698.024L7.125 2.09c.78-.162 1.577-.243 2.375-.24 1.558-.018 3.1.31 4.509.958a9.55 9.55 0 012.889 2.11 9.677 9.677 0 012.007 3.112l.095.294-.1.292a9.607 9.607 0 01-1.94 3.052v-.006z" fill="#DCDCDC"/></svg>