<svg width="35" height="37" fill="none" xmlns="http://www.w3.org/2000/svg"><g filter="url(#filter0_d_1840_19)"><path d="M25.813 25H9.188C8.531 25 8 24.494 8 23.87V12.975c.018-.277.142-.538.348-.735l8.312-7.909A1.22 1.22 0 0117.5 4c.316 0 .618.12.84.331l8.313 7.91c.223.211.348.499.347.798V23.87c0 .624-.532 1.13-1.188 1.13zM17.5 6.728l-7.125 6.779v9.233h14.25v-9.233L17.5 6.727zm-1.781 14.384l-3.214-3.05 1.67-1.603 1.544 1.46 5.106-4.85 1.677 1.6-6.783 6.442v.001z" fill="#fff"/></g><defs><filter id="filter0_d_1840_19" x="0" y="0" width="35" height="37" filterUnits="userSpaceOnUse" color-interpolation-filters="sRGB"><feFlood flood-opacity="0" result="BackgroundImageFix"/><feColorMatrix in="SourceAlpha" values="0 0 0 0 0 0 0 0 0 0 0 0 0 0 0 0 0 0 127 0" result="hardAlpha"/><feOffset dy="4"/><feGaussianBlur stdDeviation="4"/><feColorMatrix values="0 0 0 0 0 0 0 0 0 0 0 0 0 0 0 0 0 0 0.17 0"/><feBlend in2="BackgroundImageFix" result="effect1_dropShadow_1840_19"/><feBlend in="SourceGraphic" in2="effect1_dropShadow_1840_19" result="shape"/></filter></defs></svg>