<svg width="31" height="23" fill="none" xmlns="http://www.w3.org/2000/svg"><g filter="url(#filter0_d_1840_50)"><path d="M19.75 12H17.2v-1.8h2.55c1.408 0 2.55-1.209 2.55-2.7s-1.142-2.7-2.55-2.7H17.2V3h2.55C22.097 3 24 5.015 24 7.5S22.097 12 19.75 12zm-5.95 0h-2.55C8.903 12 7 9.985 7 7.5S8.903 3 11.25 3h2.55v1.8h-2.55C9.842 4.8 8.7 6.009 8.7 7.5s1.142 2.7 2.55 2.7h2.55V12zm5.95-3.6h-8.5V6.6h8.5v1.8z" fill="#fff"/></g><defs><filter id="filter0_d_1840_50" x="0" y="0" width="31" height="23" filterUnits="userSpaceOnUse" color-interpolation-filters="sRGB"><feFlood flood-opacity="0" result="BackgroundImageFix"/><feColorMatrix in="SourceAlpha" values="0 0 0 0 0 0 0 0 0 0 0 0 0 0 0 0 0 0 127 0" result="hardAlpha"/><feOffset dy="4"/><feGaussianBlur stdDeviation="3.5"/><feColorMatrix values="0 0 0 0 0 0 0 0 0 0 0 0 0 0 0 0 0 0 0.2 0"/><feBlend in2="BackgroundImageFix" result="effect1_dropShadow_1840_50"/><feBlend in="SourceGraphic" in2="effect1_dropShadow_1840_50" result="shape"/></filter></defs></svg>