<svg width="30" height="30" fill="none" xmlns="http://www.w3.org/2000/svg"><g filter="url(#filter0_d_1840_22)"><path d="M7 19v-7h7l-3.217 3.22A5.917 5.917 0 0015 17a6 6 0 005.648-4h.018c.114-.325.201-.66.259-1h2.012A8 8 0 0115 19h-.01a7.941 7.941 0 01-5.653-2.34L7 19zm2.074-9H7.062a8 8 0 017.933-7H15a7.94 7.94 0 015.654 2.34L23 3v7h-7l3.222-3.22A5.916 5.916 0 0015 5a6 6 0 00-5.648 4h-.018c-.115.325-.202.66-.259 1h-.001z" fill="#fff"/></g><defs><filter id="filter0_d_1840_22" x="0" y="0" width="30" height="30" filterUnits="userSpaceOnUse" color-interpolation-filters="sRGB"><feFlood flood-opacity="0" result="BackgroundImageFix"/><feColorMatrix in="SourceAlpha" values="0 0 0 0 0 0 0 0 0 0 0 0 0 0 0 0 0 0 127 0" result="hardAlpha"/><feOffset dy="4"/><feGaussianBlur stdDeviation="3.5"/><feColorMatrix values="0 0 0 0 0 0 0 0 0 0 0 0 0 0 0 0 0 0 0.21 0"/><feBlend in2="BackgroundImageFix" result="effect1_dropShadow_1840_22"/><feBlend in="SourceGraphic" in2="effect1_dropShadow_1840_22" result="shape"/></filter></defs></svg>