<svg width="19" height="19" fill="none" xmlns="http://www.w3.org/2000/svg"><path d="M11.283 19H7.719a.973.973 0 01-.957-.747l-.399-1.79a7.899 7.899 0 01-1.503-.842l-1.799.556a.993.993 0 01-1.145-.43L.13 12.752a.935.935 0 01.189-1.177l1.395-1.235a7.467 7.467 0 010-1.684L.32 7.425a.935.935 0 01-.19-1.178l1.783-2.995a.993.993 0 011.146-.43l1.798.555c.24-.172.488-.33.746-.475a8.14 8.14 0 01.761-.366l.4-1.788A.973.973 0 017.719 0h3.564c.46 0 .857.312.956.748l.403 1.788a7.928 7.928 0 011.502.843l1.8-.556a.993.993 0 011.144.43l1.783 2.996a.935.935 0 01-.19 1.177l-1.395 1.235c.064.56.064 1.124 0 1.684l1.396 1.234c.338.302.416.79.189 1.178l-1.783 2.995a.993.993 0 01-1.144.43l-1.8-.555a7.845 7.845 0 01-1.502.841l-.403 1.785a.973.973 0 01-.956.747zm-6.071-5.482l.803.57a6.223 6.223 0 001.132.637l.913.389.448 1.986h1.988l.447-1.987.914-.389a6.07 6.07 0 001.129-.633l.803-.57 2 .618.993-1.67-1.55-1.371.11-.962c.048-.42.048-.844 0-1.265l-.11-.961 1.55-1.374-.994-1.671-1.998.617-.804-.57a6.146 6.146 0 00-1.13-.637l-.913-.389-.447-1.986H8.508l-.45 1.987-.911.388a5.909 5.909 0 00-1.129.633l-.804.57-1.998-.618-.996 1.676 1.55 1.369-.11.962c-.047.42-.047.845 0 1.266l.11.961-1.55 1.371.994 1.67 1.998-.617zm4.285-.218c-2.163 0-3.917-1.701-3.917-3.8 0-2.099 1.754-3.8 3.917-3.8s3.917 1.701 3.917 3.8c-.003 2.098-1.755 3.797-3.917 3.8zm0-5.7c-1.07.001-1.941.835-1.956 1.873-.016 1.038.83 1.895 1.9 1.926 1.069.031 1.966-.777 2.014-1.813v.38V9.5c0-1.05-.877-1.9-1.958-1.9z" fill="#E4E4E4"/></svg>