<svg width="22" height="24" fill="none" xmlns="http://www.w3.org/2000/svg"><g filter="url(#filter0_d_1840_21)"><path d="M11 18l-6-3.5v-7L11 4l6 3.5v7L11 18zm0-12.529L6.263 8.234v5.532L11 16.53l4.737-2.763V8.234L11 5.47zm0 8.075a2.535 2.535 0 01-1.787-.746 2.56 2.56 0 01-.547-2.774A2.526 2.526 0 0111 8.455a2.53 2.53 0 011.786.745 2.56 2.56 0 010 3.6 2.534 2.534 0 01-1.786.745zm0-3.819a1.275 1.275 0 00-.484 2.449 1.258 1.258 0 001.534-.469 1.28 1.28 0 00-.157-1.607A1.251 1.251 0 0011 9.727z" fill="#fff"/></g><defs><filter id="filter0_d_1840_21" x="0" y="0" width="22" height="24" filterUnits="userSpaceOnUse" color-interpolation-filters="sRGB"><feFlood flood-opacity="0" result="BackgroundImageFix"/><feColorMatrix in="SourceAlpha" values="0 0 0 0 0 0 0 0 0 0 0 0 0 0 0 0 0 0 127 0" result="hardAlpha"/><feOffset dy="1"/><feGaussianBlur stdDeviation="2.5"/><feColorMatrix values="0 0 0 0 0 0 0 0 0 0 0 0 0 0 0 0 0 0 0.26 0"/><feBlend in2="BackgroundImageFix" result="effect1_dropShadow_1840_21"/><feBlend in="SourceGraphic" in2="effect1_dropShadow_1840_21" result="shape"/></filter></defs></svg>