<svg width="30" height="30" fill="none" xmlns="http://www.w3.org/2000/svg"><g filter="url(#filter0_d_1840_42)"><path d="M18.757 17a2.223 2.223 0 01-1.745-.8 1.99 1.99 0 01-.385-1.803l-3.941-2.14a2.29 2.29 0 01-2.5.314c-.82-.405-1.286-1.252-1.168-2.123.118-.87.796-1.577 1.697-1.771.9-.193 1.833.168 2.334.906l3.578-1.944a1.99 1.99 0 01-.073-.509c-.01-1 .722-1.87 1.752-2.082 1.03-.212 2.074.292 2.502 1.207.428.914.121 1.989-.734 2.573a2.313 2.313 0 01-2.801-.16L13.4 10.77c-.004.155-.027.31-.068.46l3.94 2.14a2.29 2.29 0 012.644-.24c.838.491 1.23 1.451.961 2.351-.27.9-1.135 1.52-2.12 1.519zm0-2.99c-.521 0-.944.4-.944.896s.423.898.944.898c.522 0 .945-.402.945-.898 0-.495-.423-.897-.945-.897zm-7.555-4.188c-.522 0-.944.402-.944.897 0 .496.422.898.944.898s.944-.402.944-.898c0-.495-.422-.897-.944-.897zm7.555-3.589c-.521 0-.944.402-.944.897 0 .496.423.898.944.898.522 0 .945-.402.945-.898 0-.495-.423-.897-.945-.897z" fill="#fff"/></g><defs><filter id="filter0_d_1840_42" x="0" y="0" width="30" height="30" filterUnits="userSpaceOnUse" color-interpolation-filters="sRGB"><feFlood flood-opacity="0" result="BackgroundImageFix"/><feColorMatrix in="SourceAlpha" values="0 0 0 0 0 0 0 0 0 0 0 0 0 0 0 0 0 0 127 0" result="hardAlpha"/><feOffset dy="4"/><feGaussianBlur stdDeviation="4.5"/><feColorMatrix values="0 0 0 0 0 0 0 0 0 0 0 0 0 0 0 0 0 0 0.35 0"/><feBlend in2="BackgroundImageFix" result="effect1_dropShadow_1840_42"/><feBlend in="SourceGraphic" in2="effect1_dropShadow_1840_42" result="shape"/></filter></defs></svg>