<svg width="29" height="26" fill="none" xmlns="http://www.w3.org/2000/svg"><g filter="url(#filter0_d_1840_37)"><path d="M9.32 14H8c0-2.21 1.772-4 3.959-4 2.186 0 3.958 1.79 3.958 4h-1.32c0-1.473-1.18-2.667-2.638-2.667S9.319 12.527 9.319 14zm7.913-2.393l-1.786-1.8.932-.946.852.862 2.837-2.862.932.944-3.769 3.8.002.002zm-5.274-2.274c-1.458 0-2.64-1.194-2.64-2.666C9.32 5.194 10.502 4 11.96 4c1.457 0 2.639 1.194 2.639 2.667-.002 1.472-1.183 2.665-2.64 2.666zm0-4a1.328 1.328 0 00-1.319 1.315c-.01.728.56 1.33 1.28 1.351a1.325 1.325 0 001.358-1.272v.266-.326c0-.737-.59-1.334-1.32-1.334z" fill="#fff"/></g><defs><filter id="filter0_d_1840_37" x="0" y="0" width="29" height="26" filterUnits="userSpaceOnUse" color-interpolation-filters="sRGB"><feFlood flood-opacity="0" result="BackgroundImageFix"/><feColorMatrix in="SourceAlpha" values="0 0 0 0 0 0 0 0 0 0 0 0 0 0 0 0 0 0 127 0" result="hardAlpha"/><feOffset dy="4"/><feGaussianBlur stdDeviation="4"/><feColorMatrix values="0 0 0 0 0 0 0 0 0 0 0 0 0 0 0 0 0 0 0.25 0"/><feBlend in2="BackgroundImageFix" result="effect1_dropShadow_1840_37"/><feBlend in="SourceGraphic" in2="effect1_dropShadow_1840_37" result="shape"/></filter></defs></svg>