<svg width="19" height="19" fill="none" xmlns="http://www.w3.org/2000/svg"><path d="M9.5 19a9.406 9.406 0 01-4.146-.95 9.538 9.538 0 01-1.353-.803l-.13-.095a9.584 9.584 0 01-2.816-3.297A9.396 9.396 0 010 9.5a9.5 9.5 0 0119 0 9.398 9.398 0 01-1.054 4.353 9.586 9.586 0 01-2.812 3.296 9.575 9.575 0 01-1.408.855l-.076.038A9.404 9.404 0 019.5 19zm0-4.75a3.79 3.79 0 00-3.38 2.059 7.613 7.613 0 006.76 0v-.005A3.788 3.788 0 009.5 14.25zm0-1.9a5.714 5.714 0 014.967 2.903l.015-.012.013-.012-.016.015-.01.007a7.6 7.6 0 10-9.937 0A5.715 5.715 0 019.5 12.35zm0-.95a3.8 3.8 0 110-7.6 3.8 3.8 0 010 7.6zm0-5.7a1.9 1.9 0 100 3.8 1.9 1.9 0 000-3.8z" fill="#695ACC"/></svg>